<svg width="349" height="345" viewBox="0 0 349 345" fill="none" xmlns="http://www.w3.org/2000/svg">
<g filter="url(#filter0_d_658_2)">
<rect x="159" y="187" width="150" height="150" fill="#008E97"/>
</g>
<rect width="150" height="150" transform="matrix(-1 0 0 1 150 161)" fill="#FFB320"/>
<g filter="url(#filter1_d_658_2)">
<rect x="159" y="24" width="150" height="150" fill="#FFB320"/>
</g>
<path d="M242.787 55.6437C244.57 55.6437 245.996 56.0003 247.066 56.7134C248.18 57.3819 249.004 58.4739 249.539 59.9892L273.139 125.908H277.217C278.732 125.908 279.802 126.264 280.426 126.977C281.095 127.646 281.429 128.805 281.429 130.454C281.429 132.103 281.095 133.284 280.426 133.997C279.802 134.666 278.732 135 277.217 135H253.55C252.035 135 250.943 134.666 250.275 133.997C249.651 133.284 249.339 132.103 249.339 130.454C249.339 128.805 249.651 127.646 250.275 126.977C250.943 126.264 252.035 125.908 253.55 125.908H262.576L257.094 109.996H224.669L219.12 125.908H227.21C228.725 125.908 229.795 126.264 230.419 126.977C231.087 127.646 231.422 128.805 231.422 130.454C231.422 132.103 231.087 133.284 230.419 133.997C229.795 134.666 228.725 135 227.21 135H204.88C203.365 135 202.273 134.666 201.605 133.997C200.981 133.284 200.669 132.103 200.669 130.454C200.669 128.805 200.981 127.646 201.605 126.977C202.273 126.264 203.365 125.908 204.88 125.908H208.624L230.753 64.7359H218.251C216.736 64.7359 215.644 64.4016 214.975 63.7331C214.351 63.02 214.039 61.8389 214.039 60.1898C214.039 58.5407 214.351 57.3819 214.975 56.7134C215.644 56.0003 216.736 55.6437 218.251 55.6437H242.787ZM240.313 64.7359L227.811 100.904H254.018L241.584 64.7359H240.313Z" fill="black"/>
<rect width="150" height="150" fill="#008E97"/>
<path d="M99.2057 42.6437C100.721 42.6437 101.791 43.0003 102.415 43.7134C103.083 44.3819 103.418 45.5407 103.418 47.1898C103.418 48.8389 103.083 50.02 102.415 50.7331C101.791 51.4016 100.721 51.7359 99.2057 51.7359H95.1276L67.1155 78.812C67.4721 78.7674 68.0069 78.7451 68.72 78.7451C74.5587 78.7451 79.2162 80.9736 82.6926 85.4306C84.0743 87.2134 85.2777 89.219 86.3028 91.4475C87.3724 93.676 88.5312 96.4616 89.7792 99.8043C89.9575 100.25 90.4032 101.431 91.1163 103.348C91.874 105.22 92.6094 106.802 93.3225 108.094C95.0607 111.303 97.0663 112.908 99.3394 112.908H101.211C102.727 112.908 103.796 113.264 104.42 113.977C105.089 114.646 105.423 115.805 105.423 117.454C105.423 119.103 105.089 120.284 104.42 120.997C103.796 121.666 102.727 122 101.211 122H95.7293C91.2277 122 87.3947 118.902 84.2303 112.707C83.116 110.479 81.8012 107.426 80.2859 103.548C79.2608 100.829 78.3248 98.5341 77.478 96.6621C76.6311 94.7902 75.6952 93.1189 74.6701 91.6481C73.6004 90.1327 72.241 88.9739 70.592 88.1716C68.9874 87.3694 67.1601 86.9682 65.1099 86.9682C63.238 86.9682 61.4329 87.3025 59.6947 87.9711C57.9565 88.6396 56.4188 89.6201 55.0817 90.9127L53.0761 92.8514V112.908H63.9065C65.4219 112.908 66.4915 113.264 67.1155 113.977C67.7841 114.646 68.1183 115.805 68.1183 117.454C68.1183 119.103 67.7841 120.284 67.1155 120.997C66.4915 121.666 65.4219 122 63.9065 122H35.5602C34.0448 122 32.9529 121.666 32.2843 120.997C31.6603 120.284 31.3484 119.103 31.3484 117.454C31.3484 115.805 31.6603 114.646 32.2843 113.977C32.9529 113.264 34.0448 112.908 35.5602 112.908H43.0479V51.7359H35.5602C34.0448 51.7359 32.9529 51.4016 32.2843 50.7331C31.6603 50.02 31.3484 48.8389 31.3484 47.1898C31.3484 45.5407 31.6603 44.3819 32.2843 43.7134C32.9529 43.0003 34.0448 42.6437 35.5602 42.6437H59.2267C60.7421 42.6437 61.8117 43.0003 62.4357 43.7134C63.1043 44.3819 63.4385 45.5407 63.4385 47.1898C63.4385 48.8389 63.1043 50.02 62.4357 50.7331C61.8117 51.4016 60.7421 51.7359 59.2267 51.7359H53.0761V80.4165L82.3583 51.7359H77.5448C76.0295 51.7359 74.9375 51.4016 74.269 50.7331C73.645 50.02 73.333 48.8389 73.333 47.1898C73.333 45.5407 73.645 44.3819 74.269 43.7134C74.9375 43.0003 76.0295 42.6437 77.5448 42.6437H99.2057Z" fill="black"/>
<path d="M254.178 229.644C255.693 229.644 256.763 230 257.387 230.713C258.055 231.382 258.389 232.541 258.389 234.19C258.389 235.839 258.055 237.02 257.387 237.733C256.763 238.402 255.693 238.736 254.178 238.736H237.063V299.908H255.515C257.03 299.908 258.1 300.264 258.724 300.977C259.392 301.646 259.726 302.805 259.726 304.454C259.726 306.103 259.392 307.284 258.724 307.997C258.1 308.666 257.03 309 255.515 309H208.583C207.067 309 205.975 308.666 205.307 307.997C204.683 307.284 204.371 306.103 204.371 304.454C204.371 302.805 204.683 301.646 205.307 300.977C205.975 300.264 207.067 299.908 208.583 299.908H227.035V238.736H209.92C208.404 238.736 207.312 238.402 206.644 237.733C206.02 237.02 205.708 235.839 205.708 234.19C205.708 232.541 206.02 231.382 206.644 230.713C207.312 230 208.404 229.644 209.92 229.644H254.178Z" fill="black"/>
<path d="M98.5371 199.644C100.053 199.644 101.122 200 101.746 200.713C102.415 201.382 102.749 202.541 102.749 204.19C102.749 205.839 102.415 207.02 101.746 207.733C101.122 208.402 100.053 208.736 98.5371 208.736H93.7236V269.908H98.5371C100.053 269.908 101.122 270.264 101.746 270.977C102.415 271.646 102.749 272.805 102.749 274.454C102.749 276.103 102.415 277.284 101.746 277.997C101.122 278.666 100.053 279 98.5371 279H77.5448C76.0295 279 74.9375 278.666 74.269 277.997C73.645 277.284 73.333 276.103 73.333 274.454C73.333 272.805 73.645 271.646 74.269 270.977C74.9375 270.264 76.0295 269.908 77.5448 269.908H83.6954V242.631H50.4019V269.908H56.5525C58.0679 269.908 59.1376 270.264 59.7615 270.977C60.4301 271.646 60.7643 272.805 60.7643 274.454C60.7643 276.103 60.4301 277.284 59.7615 277.997C59.1376 278.666 58.0679 279 56.5525 279H35.5602C34.0448 279 32.9529 278.666 32.2843 277.997C31.6603 277.284 31.3484 276.103 31.3484 274.454C31.3484 272.805 31.6603 271.646 32.2843 270.977C32.9529 270.264 34.0448 269.908 35.5602 269.908H40.3737V208.736H35.5602C34.0448 208.736 32.9529 208.402 32.2843 207.733C31.6603 207.02 31.3484 205.839 31.3484 204.19C31.3484 202.541 31.6603 201.382 32.2843 200.713C32.9529 200 34.0448 199.644 35.5602 199.644H56.5525C58.0679 199.644 59.1376 200 59.7615 200.713C60.4301 201.382 60.7643 202.541 60.7643 204.19C60.7643 205.839 60.4301 207.02 59.7615 207.733C59.1376 208.402 58.0679 208.736 56.5525 208.736H50.4019V233.539H83.6954V208.736H77.5448C76.0295 208.736 74.9375 208.402 74.269 207.733C73.645 207.02 73.333 205.839 73.333 204.19C73.333 202.541 73.645 201.382 74.269 200.713C74.9375 200 76.0295 199.644 77.5448 199.644H98.5371Z" fill="black"/>
<defs>
<filter id="filter0_d_658_2" x="155" y="187" width="158" height="158" filterUnits="userSpaceOnUse" color-interpolation-filters="sRGB">
<feFlood flood-opacity="0" result="BackgroundImageFix"/>
<feColorMatrix in="SourceAlpha" type="matrix" values="0 0 0 0 0 0 0 0 0 0 0 0 0 0 0 0 0 0 127 0" result="hardAlpha"/>
<feOffset dy="4"/>
<feGaussianBlur stdDeviation="2"/>
<feComposite in2="hardAlpha" operator="out"/>
<feColorMatrix type="matrix" values="0 0 0 0 0 0 0 0 0 0 0 0 0 0 0 0 0 0 0.25 0"/>
<feBlend mode="normal" in2="BackgroundImageFix" result="effect1_dropShadow_658_2"/>
<feBlend mode="normal" in="SourceGraphic" in2="effect1_dropShadow_658_2" result="shape"/>
</filter>
<filter id="filter1_d_658_2" x="155" y="24" width="158" height="158" filterUnits="userSpaceOnUse" color-interpolation-filters="sRGB">
<feFlood flood-opacity="0" result="BackgroundImageFix"/>
<feColorMatrix in="SourceAlpha" type="matrix" values="0 0 0 0 0 0 0 0 0 0 0 0 0 0 0 0 0 0 127 0" result="hardAlpha"/>
<feOffset dy="4"/>
<feGaussianBlur stdDeviation="2"/>
<feComposite in2="hardAlpha" operator="out"/>
<feColorMatrix type="matrix" values="0 0 0 0 0 0 0 0 0 0 0 0 0 0 0 0 0 0 0.25 0"/>
<feBlend mode="normal" in2="BackgroundImageFix" result="effect1_dropShadow_658_2"/>
<feBlend mode="normal" in="SourceGraphic" in2="effect1_dropShadow_658_2" result="shape"/>
</filter>
</defs>
</svg>
